<svg xmlns="http://www.w3.org/2000/svg" viewBox="0 0 22 25.863">
  <defs>
    <style>
      .cls-1 {
        fill: #fff;
      }
    </style>
  </defs>
  <g id="avatar" transform="translate(0 0)">
    <g id="Group_457" data-name="Group 457" transform="translate(0)">
      <path id="Path_92" data-name="Path 92" class="cls-1" d="M142.578,13.936h.171a4.942,4.942,0,0,0,3.776-1.634c2.062-2.324,1.719-6.309,1.682-6.69-.134-2.855-1.484-4.221-2.6-4.858A5.955,5.955,0,0,0,142.728,0h-.091a5.964,5.964,0,0,0-2.882.734c-1.125.637-2.5,2-2.63,4.879-.037.38-.38,4.365,1.682,6.69A4.922,4.922,0,0,0,142.578,13.936Zm-4.022-8.189c0-.016.005-.032.005-.043.177-3.84,2.9-4.253,4.071-4.253h.064c1.446.032,3.9.621,4.071,4.253a.1.1,0,0,0,.005.043c.005.037.38,3.68-1.323,5.6a3.51,3.51,0,0,1-2.758,1.146h-.054a3.5,3.5,0,0,1-2.753-1.146C138.186,9.437,138.55,5.779,138.555,5.747Z" transform="translate(-131.672)"/>
      <path id="Path_93" data-name="Path 93" class="cls-1" d="M58.071,265.9v-.016c0-.043-.005-.086-.005-.134-.032-1.06-.1-3.54-2.426-4.333l-.054-.016a15.454,15.454,0,0,1-4.445-2.025.723.723,0,0,0-.83,1.184A16.682,16.682,0,0,0,55.2,262.8c1.248.445,1.387,1.778,1.425,3a1.076,1.076,0,0,0,.005.134,9.723,9.723,0,0,1-.112,1.655,19.711,19.711,0,0,1-9.443,2.2,19.825,19.825,0,0,1-9.448-2.2,9.2,9.2,0,0,1-.112-1.655c0-.043.005-.086.005-.134.037-1.221.177-2.555,1.425-3a16.837,16.837,0,0,0,4.89-2.233.723.723,0,0,0-.83-1.184,15.285,15.285,0,0,1-4.445,2.025c-.021.005-.037.011-.054.016-2.325.8-2.394,3.278-2.426,4.333a1.075,1.075,0,0,1-.005.134v.016a8.214,8.214,0,0,0,.273,2.426.687.687,0,0,0,.279.337,20.258,20.258,0,0,0,10.455,2.56,20.32,20.32,0,0,0,10.455-2.56.716.716,0,0,0,.279-.337A8.617,8.617,0,0,0,58.071,265.9Z" transform="translate(-36.073 -245.359)"/>
    </g>
  </g>
</svg>
