<svg xmlns="http://www.w3.org/2000/svg" viewBox="0 0 36.03 42.998">
  <defs>
    <style>
      .cls-1 {
        fill: #ff8b8c;
        stroke: #ff8b8c;
      }
    </style>
  </defs>
  <g id="Group_2246" data-name="Group 2246" transform="translate(-1822.485 -28.5)">
    <g id="Group_1360" data-name="Group 1360" transform="translate(1823 29)">
      <g id="notification" transform="translate(0)">
        <g id="Group_422" data-name="Group 422" transform="translate(0 6.125)">
          <g id="Group_421" data-name="Group 421" transform="translate(0)">
            <path id="Path_85" data-name="Path 85" class="cls-1" d="M77.532,103.966l-3.006-5.008A14.887,14.887,0,0,1,72.407,91.3V86.916a12.249,12.249,0,1,0-24.5,0V91.3a14.887,14.887,0,0,1-2.119,7.654l-3.006,5.008a.874.874,0,0,0,.751,1.325H76.782a.874.874,0,0,0,.751-1.325Zm-32.454-.425,2.21-3.684A16.621,16.621,0,0,0,49.658,91.3V86.916a10.5,10.5,0,1,1,21,0V91.3a16.636,16.636,0,0,0,2.368,8.554l2.212,3.684Z" transform="translate(-42.657 -74.667)"/>
          </g>
        </g>
        <g id="Group_424" data-name="Group 424" transform="translate(14)">
          <g id="Group_423" data-name="Group 423" transform="translate(0)">
            <path id="Path_86" data-name="Path 86" class="cls-1" d="M216.833,0a3.5,3.5,0,0,0-3.5,3.5V7a.875.875,0,0,0,1.75,0V3.5a1.75,1.75,0,1,1,3.5,0V7a.875.875,0,0,0,1.75,0V3.5A3.5,3.5,0,0,0,216.833,0Z" transform="translate(-213.333)"/>
          </g>
        </g>
        <g id="Group_426" data-name="Group 426" transform="translate(13.125 35)">
          <g id="Group_425" data-name="Group 425">
            <path id="Path_87" data-name="Path 87" class="cls-1" d="M210.828,427.111a.876.876,0,1,0-1.512.885,2.625,2.625,0,1,1-4.546,0,.876.876,0,1,0-1.512-.885,4.377,4.377,0,1,0,7.57,0Z" transform="translate(-202.666 -426.68)"/>
          </g>
        </g>
      </g>
    </g>
  </g>
</svg>
