<svg xmlns="http://www.w3.org/2000/svg" viewBox="0 0 94.166 75.187">
  <defs>
    <style>
      .cls-1 {
        fill: #d86162;
      }
    </style>
  </defs>
  <g id="broken-heart" transform="translate(0 -51.6)">
    <path id="Path_424" data-name="Path 424" class="cls-1" d="M44.14,125.167a2.953,2.953,0,0,1,.312-1.318l7.669-15.331-15.5-10.329a2.94,2.94,0,0,1,0-4.9L50.608,83.97,36.625,74.647a2.943,2.943,0,0,1-.471-4.508L44.14,61.97V56.914A30.427,30.427,0,0,0,27.22,51.6C11.959,51.6,0,62.865,0,77.243c0,19.751,35.665,44.046,44.14,49.537Z" transform="translate(0 0)"/>
    <path id="Path_425" data-name="Path 425" class="cls-1" d="M257.034,51.6a30.427,30.427,0,0,0-16.92,5.314v6.256a2.938,2.938,0,0,1-.842,2.06l-6.344,6.486,14.708,9.805a2.944,2.944,0,0,1-.006,4.9L233.646,95.74l13.984,9.322a2.949,2.949,0,0,1,1,3.767l-8.516,17.032v.924c17.044-10.764,44.14-32.381,44.14-49.543C284.254,62.865,272.3,51.6,257.034,51.6Z" transform="translate(-190.088 0)"/>
  </g>
</svg>
