<svg xmlns="http://www.w3.org/2000/svg" viewBox="0 0 30 45.932">
  <defs>
    <style>
      .cls-1 {
        fill: #f2797a;
      }
    </style>
  </defs>
  <g id="businessman-personal-data-paper" transform="translate(-30.348 0.001)">
    <g id="Group_60" data-name="Group 60" transform="translate(30.348 -0.001)">
      <path id="Path_1" data-name="Path 1" class="cls-1" d="M67.4,133.735H47.828a.853.853,0,0,0,0,1.706H67.4a.853.853,0,0,0,0-1.706Z" transform="translate(-42.612 -98.633)"/>
      <path id="Path_2" data-name="Path 2" class="cls-1" d="M94.889,148.538H85.1a.853.853,0,0,0,0,1.706h9.784a.853.853,0,0,0,0-1.706Z" transform="translate(-70.104 -109.551)"/>
      <path id="Path_3" data-name="Path 3" class="cls-1" d="M56.5,62.118c0,2.677,16.268,2.677,16.268,0,0-2.263-2.607-5.321-6.128-6.214a5.988,5.988,0,0,0,2.487-4.7,4.492,4.492,0,1,0-8.984,0,5.988,5.988,0,0,0,2.483,4.7C59.115,56.8,56.5,59.855,56.5,62.118Zm7.771-4.91h-.019l-.743-.856a3.27,3.27,0,0,0,1.126.209,3.352,3.352,0,0,0,1.126-.2l-.746.853H65l1.922,4.638-2.284,2.278-2.281-2.278Z" transform="translate(-49.639 -34.45)"/>
      <path id="Path_4" data-name="Path 4" class="cls-1" d="M57.692,6.378A5.333,5.333,0,0,1,58.138,8.4v1.8a3.127,3.127,0,0,1,.1.739V44.805a3.178,3.178,0,0,1-3.174,3.176H35.637a3.178,3.178,0,0,1-3.173-3.176V10.942a3.178,3.178,0,0,1,3.173-3.175H48.906A5.261,5.261,0,0,1,49.6,5.65H35.637a5.3,5.3,0,0,0-5.289,5.292V44.8A5.3,5.3,0,0,0,35.637,50.1H55.06A5.3,5.3,0,0,0,60.348,44.8V10.942A5.272,5.272,0,0,0,57.692,6.378Z" transform="translate(-30.348 -4.167)"/>
      <path id="Path_5" data-name="Path 5" class="cls-1" d="M107.712,12.092a4.052,4.052,0,0,0,3.836-4.23V4.231A4.481,4.481,0,0,0,110.958,2l-.9.9a3.333,3.333,0,0,1,.283,1.335V7.86a2.654,2.654,0,1,1-5.255,0V4.231a2.852,2.852,0,0,1,2.629-3.024,2.37,2.37,0,0,1,1.218.361l.872-.875A3.578,3.578,0,0,0,107.715,0a4.053,4.053,0,0,0-3.839,4.232l0,3.63A4.055,4.055,0,0,0,107.712,12.092Z" transform="translate(-84.576 0.001)"/>
    </g>
  </g>
</svg>
