<svg xmlns="http://www.w3.org/2000/svg" viewBox="0 0 50 45.816">
  <defs>
    <style>
      .cls-1 {
        fill: #f2797a;
      }
    </style>
  </defs>
  <g id="family" transform="translate(0 -21.42)">
    <g id="Group_136" data-name="Group 136" transform="translate(10.879 37.32)">
      <g id="Group_135" data-name="Group 135">
        <path id="Path_22" data-name="Path 22" class="cls-1" d="M115.938,184.394a.732.732,0,0,0-1.03.107,1.362,1.362,0,0,1-2.21,0,.732.732,0,0,0-1.138.923,2.823,2.823,0,0,0,4.485,0A.732.732,0,0,0,115.938,184.394Z" transform="translate(-111.397 -184.231)"/>
      </g>
    </g>
    <g id="Group_138" data-name="Group 138" transform="translate(9.205 33.136)">
      <g id="Group_137" data-name="Group 137">
        <path id="Path_23" data-name="Path 23" class="cls-1" d="M94.991,141.386a.732.732,0,0,0-.732.732v.837a.732.732,0,0,0,1.465,0v-.837A.732.732,0,0,0,94.991,141.386Z" transform="translate(-94.259 -141.386)"/>
      </g>
    </g>
    <g id="Group_140" data-name="Group 140" transform="translate(15.9 33.136)">
      <g id="Group_139" data-name="Group 139">
        <path id="Path_24" data-name="Path 24" class="cls-1" d="M163.543,141.386a.732.732,0,0,0-.732.732v.837a.732.732,0,0,0,1.465,0v-.837A.732.732,0,0,0,163.543,141.386Z" transform="translate(-162.811 -141.386)"/>
      </g>
    </g>
    <g id="Group_142" data-name="Group 142" transform="translate(35.146 41.504)">
      <g id="Group_141" data-name="Group 141">
        <path id="Path_25" data-name="Path 25" class="cls-1" d="M364.438,227.238a.732.732,0,0,0-1.03.108,1.362,1.362,0,0,1-2.21,0,.732.732,0,1,0-1.138.923,2.823,2.823,0,0,0,4.485,0A.732.732,0,0,0,364.438,227.238Z" transform="translate(-359.897 -227.075)"/>
      </g>
    </g>
    <g id="Group_144" data-name="Group 144" transform="translate(33.473 37.32)">
      <g id="Group_143" data-name="Group 143">
        <path id="Path_26" data-name="Path 26" class="cls-1" d="M343.491,184.231a.733.733,0,0,0-.732.732v.837a.732.732,0,0,0,1.465,0v-.837A.732.732,0,0,0,343.491,184.231Z" transform="translate(-342.759 -184.231)"/>
      </g>
    </g>
    <g id="Group_146" data-name="Group 146" transform="translate(40.167 37.32)">
      <g id="Group_145" data-name="Group 145">
        <path id="Path_27" data-name="Path 27" class="cls-1" d="M412.043,184.231a.732.732,0,0,0-.732.732v.837a.732.732,0,0,0,1.465,0v-.837A.732.732,0,0,0,412.043,184.231Z" transform="translate(-411.311 -184.231)"/>
      </g>
    </g>
    <g id="Group_148" data-name="Group 148" transform="translate(0 21.42)">
      <g id="Group_147" data-name="Group 147" transform="translate(0 0)">
        <path id="Path_28" data-name="Path 28" class="cls-1" d="M47.962,51.8l-5.738-2.3a.959.959,0,0,1-.089-.043,15.156,15.156,0,0,0,5.923-2.478.733.733,0,0,0,.261-.67A94.884,94.884,0,0,1,47.49,34.7a9.937,9.937,0,1,0-19.875,0c0,1.5-.068,3.338-.179,5.076l-1.6.8-4.693-2.347c-.013-.007-.028-.012-.041-.017a8.2,8.2,0,0,0,.423-2.049,2.4,2.4,0,0,0,.86-4.121V27.173a4.076,4.076,0,0,0-1.8-3.363,3.22,3.22,0,0,0-3.121-2.391H10.774a6.6,6.6,0,0,0-6.59,6.59v4.036a2.4,2.4,0,0,0,.86,4.121,8.261,8.261,0,0,0,3.324,6.01V44.2L2.311,46.019A3.223,3.223,0,0,0,0,49.125V57.3a.732.732,0,0,0,.732.732h.1V66.5a.732.732,0,0,0,1.465,0V58.031H5.021V66.5a.732.732,0,0,0,1.465,0V53.875a3.233,3.233,0,0,0-.545-1.8L4.689,50.2a.732.732,0,1,0-1.219.813l1.252,1.878a1.772,1.772,0,0,1,.3.986v2.692H1.465V49.125a1.767,1.767,0,0,1,1.267-1.7l2.514-.754A8.265,8.265,0,0,0,17.2,52.024a2.4,2.4,0,0,0,1.941.987h.1v.1a6.593,6.593,0,0,0,3.347,5.734v1.195a.1.1,0,0,1-.071.1l-2.732.911a3.239,3.239,0,0,0-2.217,3.076V66.5a.732.732,0,0,0,1.465,0V64.129a1.776,1.776,0,0,1,1.216-1.687l.8-.268a5.753,5.753,0,0,0,9.56,0l.8.268a1.776,1.776,0,0,1,1.216,1.687V66.5a.732.732,0,1,0,1.465,0V64.129a3.239,3.239,0,0,0-2.217-3.076l-2.732-.911a.1.1,0,0,1-.071-.1V58.848a6.617,6.617,0,0,0,3.1-3.953,7.426,7.426,0,0,0,12.441-2.85l2.8,1.118a1.769,1.769,0,0,1,1.118,1.651V58.24H45.816V57.3a.732.732,0,1,0-1.465,0V66.5a.732.732,0,1,0,1.465,0V59.7H47.7v6.8a.732.732,0,1,0,1.465,0V59.7h.1A.732.732,0,0,0,50,58.973V54.814A3.227,3.227,0,0,0,47.962,51.8ZM29.08,34.7a8.473,8.473,0,1,1,16.945,0A96.163,96.163,0,0,0,46.81,46.08a15.679,15.679,0,0,1-5.178,2V46.911a8.2,8.2,0,0,0,1.112-.755,8.245,8.245,0,0,0,3.072-6.43c0-4.14-2.994-4.734-5.889-5.309a11.75,11.75,0,0,1-5.264-1.958.732.732,0,0,0-1.19.572c0,.019-.032,1.947-2.792,2.637a.732.732,0,0,0,.355,1.421,4.847,4.847,0,0,0,3.638-2.848,15.34,15.34,0,0,0,4.969,1.612c3.095.614,4.71,1.066,4.71,3.872a6.78,6.78,0,0,1-2.528,5.291,6.8,6.8,0,0,1-8.227.237,8.276,8.276,0,0,0-2.005-3.091V38.889a.732.732,0,0,0-1.06-.655l-1.581.791C29.036,37.5,29.08,36.049,29.08,34.7Zm1.046,5.369v2.651L27.475,41.4Zm-8.577,0L24.2,41.4l-2.651,1.325Zm-3.975,8.02v.7a2.406,2.406,0,0,0-.837,1.815A6.8,6.8,0,0,1,6.653,46.246L8.462,45.7a4.915,4.915,0,0,0,9.182,1.313A8.235,8.235,0,0,0,17.573,48.094Zm-7.74-3.348v-1.7a8.253,8.253,0,0,0,6.9,0v1.7a3.452,3.452,0,0,1-6.9.009S9.833,44.749,9.833,44.745Zm3.452-2.4a6.807,6.807,0,0,1-6.8-6.8.732.732,0,0,0-.732-.732.941.941,0,0,1,0-1.882H7.427a.732.732,0,0,0,.695-.5l.672-2.017c1.683-.038,6.9-.275,9.839-1.744a.732.732,0,1,0-.655-1.31c-3.152,1.576-9.649,1.6-9.714,1.6a.732.732,0,0,0-.695.5l-.67,2.01H5.753l-.1,0V28.01a5.131,5.131,0,0,1,5.125-5.125h6.695a1.765,1.765,0,0,1,1.747,1.5.732.732,0,0,0,.364.523,2.615,2.615,0,0,1,1.341,2.267v4.291l-.1,0h-.837a.732.732,0,1,0,0,1.465h.837a.941.941,0,0,1,0,1.882.732.732,0,0,0-.732.732A6.807,6.807,0,0,1,13.285,42.34ZM18.2,44.747V42.177a8.33,8.33,0,0,0,1.882-1.946v1.932A8.275,8.275,0,0,0,18.2,44.95C18.2,44.883,18.2,44.815,18.2,44.747ZM29.155,61.687a4.285,4.285,0,0,1-6.636,0l.467-.156a1.567,1.567,0,0,0,1.073-1.489v-.584a6.556,6.556,0,0,0,3.556,0v.584a1.567,1.567,0,0,0,1.073,1.489Zm2.54-10.142a.732.732,0,0,0-.732.732v.728c0,.006,0,.013,0,.019v.09a5.125,5.125,0,0,1-10.251,0v-.837a.732.732,0,0,0-.732-.732h-.837A.942.942,0,0,1,18.2,50.6a.93.93,0,0,1,.473-.808.729.729,0,0,0,.173-.142c1.811-.052,7.68-.393,11.537-2.6a.732.732,0,0,0-.727-1.272c-3.379,1.931-8.689,2.317-10.62,2.395v-.085A6.806,6.806,0,0,1,20.2,44.3a.73.73,0,0,0,.946.265l4.693-2.347,4.693,2.347a.728.728,0,0,0,.946-.265,6.806,6.806,0,0,1,1.16,3.794v1.069A.732.732,0,0,0,33,49.8a.93.93,0,0,1,.473.808.942.942,0,0,1-.941.941Zm5.858,4.184a5.97,5.97,0,0,1-5-2.72A2.4,2.4,0,0,0,34.1,48.79v-.7a8.235,8.235,0,0,0-.047-.878,8.258,8.258,0,0,0,6.114.346v1.073a2.4,2.4,0,0,0,1.512,2.234l1.579.632A5.959,5.959,0,0,1,37.552,55.73Z" transform="translate(0 -21.42)"/>
      </g>
    </g>
    <g id="Group_150" data-name="Group 150" transform="translate(23.431 54.056)">
      <g id="Group_149" data-name="Group 149">
        <path id="Path_29" data-name="Path 29" class="cls-1" d="M244.473,355.773a.732.732,0,0,0-1.03.107,1.362,1.362,0,0,1-2.21,0,.732.732,0,0,0-1.138.923,2.824,2.824,0,0,0,4.485,0A.733.733,0,0,0,244.473,355.773Z" transform="translate(-239.932 -355.61)"/>
      </g>
    </g>
    <g id="Group_152" data-name="Group 152" transform="translate(22.608 50.712)">
      <g id="Group_151" data-name="Group 151">
        <ellipse id="Ellipse_3" data-name="Ellipse 3" class="cls-1" cx="0.732" cy="0.732" rx="0.732" ry="0.732"/>
      </g>
    </g>
    <g id="Group_154" data-name="Group 154" transform="translate(27.588 50.712)">
      <g id="Group_153" data-name="Group 153">
        <ellipse id="Ellipse_4" data-name="Ellipse 4" class="cls-1" cx="0.732" cy="0.732" rx="0.732" ry="0.732"/>
      </g>
    </g>
  </g>
</svg>
