<svg xmlns="http://www.w3.org/2000/svg" viewBox="0 0 40 40.002">
  <defs>
    <style>
      .cls-1 {
        fill: #f2797a;
      }
    </style>
  </defs>
  <g id="Group_404" data-name="Group 404" transform="translate(-1625 -359)">
    <g id="Group_189" data-name="Group 189" transform="translate(1629.688 363.844)">
      <g id="Group_188" data-name="Group 188">
        <path id="Path_43" data-name="Path 43" class="cls-1" d="M70.558,69.917a4.6,4.6,0,0,0,1.328-3.229,4.766,4.766,0,0,0-9.532,0,4.6,4.6,0,0,0,1.328,3.229,7.027,7.027,0,0,0-3.672,6.147v1.172a1.172,1.172,0,0,0,1.172,1.172H73.058a1.172,1.172,0,0,0,1.172-1.172V76.063A7.027,7.027,0,0,0,70.558,69.917Zm-3.438-5.573A2.345,2.345,0,1,1,64.7,66.688,2.416,2.416,0,0,1,67.121,64.344ZM62.355,76.063a4.766,4.766,0,0,1,9.532,0Z" transform="translate(-60.011 -62)"/>
      </g>
    </g>
    <g id="Group_191" data-name="Group 191" transform="translate(1625 359)">
      <g id="Group_190" data-name="Group 190" transform="translate(0)">
        <path id="Path_44" data-name="Path 44" class="cls-1" d="M38.983,13.425a3.52,3.52,0,0,0-4.972,0l-1.03,1.03V8.36a1.173,1.173,0,0,0-.343-.829h0L25.615.352A1.182,1.182,0,0,0,24.778,0H3.527A3.58,3.58,0,0,0,.011,3.594V36.486A3.52,3.52,0,0,0,3.527,40H29.465a3.52,3.52,0,0,0,3.516-3.516V24.4l2.687-2.687L38.983,18.4A3.52,3.52,0,0,0,38.983,13.425ZM25.95,4.046l3.074,3.142H25.95Zm4.688,32.44a1.173,1.173,0,0,1-1.172,1.172H3.527a1.173,1.173,0,0,1-1.172-1.172V3.594a1.245,1.245,0,0,1,1.172-1.25H23.606V8.36a1.172,1.172,0,0,0,1.172,1.172h5.86V16.8l-9.885,9.885a1.215,1.215,0,0,0-.22.3L17.542,32.97H12.98a1.172,1.172,0,0,0,0,2.344h4.766a3.708,3.708,0,0,0,1.044-.124l6.629-3.315a1.211,1.211,0,0,0,.3-.22l4.913-4.913Zm-7.021-6.329-2.73,1.365,1.365-2.73A2.153,2.153,0,0,1,23.616,30.157ZM25.47,28.6a4.519,4.519,0,0,0-1.657-1.657l7.712-7.712,1.657,1.657ZM37.326,16.74,34.84,19.226l-1.657-1.657,2.486-2.486a1.172,1.172,0,1,1,1.657,1.657Z" transform="translate(-0.011)"/>
      </g>
    </g>
    <g id="Group_193" data-name="Group 193" transform="translate(1646.251 370.875)">
      <g id="Group_192" data-name="Group 192">
        <path id="Path_45" data-name="Path 45" class="cls-1" d="M277.871,152h-4.688a1.172,1.172,0,1,0,0,2.344h4.688a1.172,1.172,0,1,0,0-2.344Z" transform="translate(-272.011 -152)"/>
      </g>
    </g>
    <g id="Group_195" data-name="Group 195" transform="translate(1646.251 375.563)">
      <g id="Group_194" data-name="Group 194">
        <path id="Path_46" data-name="Path 46" class="cls-1" d="M277.871,212h-4.688a1.172,1.172,0,1,0,0,2.344h4.688a1.172,1.172,0,1,0,0-2.344Z" transform="translate(-272.011 -212)"/>
      </g>
    </g>
    <g id="Group_197" data-name="Group 197" transform="translate(1629.688 382.595)">
      <g id="Group_196" data-name="Group 196">
        <path id="Path_47" data-name="Path 47" class="cls-1" d="M70.715,302H61.183a1.172,1.172,0,0,0,0,2.344h9.532a1.172,1.172,0,0,0,0-2.344Z" transform="translate(-60.011 -302)"/>
      </g>
    </g>
    <g id="Group_199" data-name="Group 199" transform="translate(1629.688 387.282)">
      <g id="Group_198" data-name="Group 198">
        <path id="Path_48" data-name="Path 48" class="cls-1" d="M70.715,362H61.183a1.172,1.172,0,0,0,0,2.344h9.532a1.172,1.172,0,0,0,0-2.344Z" transform="translate(-60.011 -362)"/>
      </g>
    </g>
  </g>
</svg>
