<svg xmlns="http://www.w3.org/2000/svg" viewBox="0 0 24.5 24.5">
  <defs>
    <style>
      .cls-1 {
        fill: #fff;
        stroke: #fff;
        stroke-width: 0.5px;
      }
    </style>
  </defs>
  <g id="verified" transform="translate(0.25 0.25)">
    <g id="Group_2413" data-name="Group 2413">
      <g id="Group_2412" data-name="Group 2412">
        <path id="Path_550" data-name="Path 550" class="cls-1" d="M20.485,3.515A12,12,0,0,0,3.515,20.485,12,12,0,1,0,20.485,3.515ZM12,22.594A10.594,10.594,0,1,1,22.594,12,10.606,10.606,0,0,1,12,22.594Z"/>
      </g>
    </g>
    <g id="Group_2415" data-name="Group 2415" transform="translate(6.061 7.944)">
      <g id="Group_2414" data-name="Group 2414">
        <path id="Path_551" data-name="Path 551" class="cls-1" d="M140.973,169.673a.7.7,0,0,0-.994,0l-6.209,6.209-3.268-3.268a.7.7,0,1,0-.994.994l3.766,3.766a.7.7,0,0,0,.994,0l6.706-6.706A.7.7,0,0,0,140.973,169.673Z" transform="translate(-129.301 -169.467)"/>
      </g>
    </g>
  </g>
</svg>
