<svg id="wedding-rings" xmlns="http://www.w3.org/2000/svg" viewBox="0 0 26 23.831">
  <defs>
    <style>
      .cls-1 {
        fill: #fff;
      }
    </style>
  </defs>
  <g id="Group_461" data-name="Group 461" transform="translate(0 5.041)">
    <g id="Group_460" data-name="Group 460">
      <path id="Path_94" data-name="Path 94" class="cls-1" d="M18.879,123.459l1.547-1.547-1.1-1.283H16.668l-1.1,1.283,1.547,1.547a8,8,0,0,0-4.112,1.7,8,8,0,0,0-4.112-1.7l1.547-1.547-1.1-1.283H6.676l-1.1,1.283,1.547,1.547A8,8,0,1,0,13,137.669a8,8,0,1,0,5.879-14.209Zm-2.261-1.587.4-.471h1.947l.4.471L18,123.25Zm-9.991,0,.4-.471H8.978l.4.471L8,123.25ZM8,138.647a7.231,7.231,0,1,1,6.086-3.325l-.029-.03c-.042-.043-.084-.086-.125-.131l-.054-.06c-.034-.037-.067-.075-.1-.113l-.055-.066q-.047-.057-.093-.116l-.051-.066q-.05-.066-.1-.134l-.03-.042a6.3,6.3,0,0,0,0-6.306l0,0-.131-.207a6.317,6.317,0,0,0-.884-1.1q-.167-.166-.347-.32l-.317-.271-.008.011a6.3,6.3,0,1,0,.008,10.087l.015.018.083.1.064.076.09.1.062.07.1.108.056.06c.041.043.084.085.126.126l.034.035A7.229,7.229,0,0,1,8,138.647ZM14.68,127a5.525,5.525,0,1,1,0,8.834,8,8,0,0,0,0-8.834ZM13,133.774a5.526,5.526,0,0,1,0-4.719,5.526,5.526,0,0,1,0,4.719ZM11.32,127a8,8,0,0,0,0,8.834,5.525,5.525,0,1,1,0-8.834ZM18,138.647a7.233,7.233,0,0,1-6.086-11.139l.029.03c.042.043.084.086.125.13l.053.059q.051.056.1.114l.055.066q.047.058.093.116l.051.065c.033.044.066.089.1.134l.03.042a6.3,6.3,0,0,0,0,6.306l0,0,.131.207a6.321,6.321,0,0,0,1.231,1.42l.317.271.008-.011a6.3,6.3,0,1,0-.008-10.087l-.015-.018-.083-.1-.065-.077-.09-.1-.063-.071-.1-.105-.059-.062c-.04-.041-.08-.081-.121-.121l-.04-.04A7.232,7.232,0,1,1,18,138.647Z" transform="translate(0 -120.629)"/>
    </g>
  </g>
  <g id="Group_463" data-name="Group 463" transform="translate(12.614 0)">
    <g id="Group_462" data-name="Group 462">
      <rect id="Rectangle_198" data-name="Rectangle 198" class="cls-1" width="0.772" height="2.404"/>
    </g>
  </g>
  <g id="Group_465" data-name="Group 465" transform="translate(15.326 0.701)">
    <g id="Group_464" data-name="Group 464" transform="translate(0 0)">
      <rect id="Rectangle_199" data-name="Rectangle 199" class="cls-1" width="2.404" height="0.772" transform="translate(0 2.182) rotate(-65.178)"/>
    </g>
  </g>
  <g id="Group_467" data-name="Group 467" transform="translate(8.963 0.701)">
    <g id="Group_466" data-name="Group 466" transform="translate(0 0)">
      <rect id="Rectangle_200" data-name="Rectangle 200" class="cls-1" width="0.772" height="2.404" transform="translate(0 0.324) rotate(-24.822)"/>
    </g>
  </g>
</svg>
